<svg xmlns="http://www.w3.org/2000/svg" viewBox="0 0 24 24" fill="#89dceb">
  <path d="M20 18c1.1 0 1.99-.9 1.99-2L22 6c0-1.1-.9-2-2-2H4c-1.1 0-2 .9-2 2v10c0 1.1.9 2 2 2H0v2h24v-2h-4zM4 6h16v10H4V6z"/>
  <rect x="6" y="8" width="3" height="2" fill="#89dceb"/>
  <rect x="10" y="8" width="3" height="2" fill="#89dceb"/>
  <rect x="14" y="8" width="3" height="2" fill="#89dceb"/>
  <rect x="6" y="11" width="3" height="2" fill="#89dceb"/>
  <rect x="10" y="11" width="3" height="2" fill="#89dceb"/>
  <rect x="14" y="11" width="3" height="2" fill="#89dceb"/>
</svg>
